<svg width="24" height="24" viewBox="0 0 24 24" fill="none" xmlns="http://www.w3.org/2000/svg">
<circle cx="12" cy="12" r="12" fill="white"/>
<path fill-rule="evenodd" clip-rule="evenodd" d="M11.3352 0.0120352C10.468 0.0748576 10.0926 0.128706 9.41313 0.275295C7.62217 0.667192 5.95042 1.47791 4.44554 2.67754C4.04325 3.00063 3.03901 4.00281 2.70227 4.41864C0.869599 6.69224 -0.0810062 9.50433 0.00541243 12.3763C0.0411719 13.516 0.18421 14.4345 0.476245 15.4426C1.0186 17.2944 1.93642 18.8949 3.29528 20.3548L3.60818 20.6929H3.62444C5.81066 22.7424 8.76591 24 12.0186 24C15.2829 24 18.2476 22.7335 20.4361 20.671H20.4211L20.6207 20.4625C22.0034 19.0086 22.9719 17.3423 23.5172 15.4875C23.8659 14.2939 24 13.3425 24 12.0322C24 11.0659 23.9404 10.4616 23.7586 9.58212C23.55 8.58592 23.2401 7.68545 22.7812 6.7431C22.1912 5.53151 21.5356 4.60113 20.5939 3.63784C19.5539 2.56984 18.5228 1.82194 17.2117 1.18773C15.5429 0.379999 13.8473 -0.00591485 11.9908 6.85005e-05C11.6958 0.00305922 11.4008 0.00605185 11.3352 0.0120352ZM6.79077 20.4266V20.671H5.03259V20.4117V20.1275L5.11603 20.1185L5.19649 20.1095L5.20543 16.3311L5.21139 12.5558H5.09517C5.08135 12.5558 5.06929 12.5573 5.05862 12.5586C5.04368 12.5605 5.03146 12.5621 5.02089 12.5586C4.97334 12.543 4.95916 12.4258 4.88119 11.7817C4.86882 11.6796 4.85486 11.5642 4.8389 11.4339C4.78228 10.9732 4.72864 10.5663 4.7197 10.5275L4.7048 10.4616H5.91168H7.11856L7.10366 10.5424C7.08876 10.6322 6.85037 12.5049 6.85037 12.5378C6.85037 12.5468 6.79673 12.5558 6.73117 12.5558H6.61197L6.61793 16.3311L6.62687 20.1095L6.71031 20.1185L6.79077 20.1275V20.4266ZM10.8882 20.671H9.13115L9.13897 20.4146L9.139 20.4135C9.14791 20.1274 9.148 20.1245 9.21943 20.1245H9.29393V16.3401V12.5558H9.18963C9.13003 12.5558 9.07937 12.5378 9.07341 12.5169C9.06149 12.481 8.81714 10.5275 8.81714 10.4826C8.81714 10.4706 9.35651 10.4616 10.0121 10.4616H11.21L11.1892 10.6322L11.1659 10.8165C11.1404 11.0174 11.0992 11.3424 11.0581 11.6732L10.9478 12.5408L10.8346 12.5498L10.7243 12.5587V16.3431V20.1245H10.8077H10.8882V20.4146V20.671ZM14.8802 20.671H13.1228L13.1202 20.4176L13.1172 20.1245H13.2006H13.2871V16.3431V12.5587L13.1768 12.5498L13.0636 12.5408L12.9384 11.5835C12.8699 11.057 12.8133 10.5903 12.8133 10.5424L12.8103 10.4616H14.0023C14.6578 10.4616 15.1942 10.4706 15.1942 10.4826C15.1942 10.5245 14.9529 12.4181 14.938 12.4869C14.929 12.5438 14.9052 12.5558 14.8217 12.5558H14.7174V16.3401V20.1245H14.7919C14.8634 20.1245 14.8635 20.1274 14.8724 20.4135L14.8724 20.4146L14.8802 20.671ZM18.9788 20.671H17.2206V20.4266V20.1275L17.304 20.1185L17.3845 20.1095V16.3311V12.5558H17.2742C17.2117 12.5558 17.161 12.5468 17.161 12.5378C17.161 12.5079 16.9226 10.6681 16.9047 10.5574L16.8898 10.4616H18.0788C18.7314 10.4616 19.2738 10.4676 19.2798 10.4766C19.2887 10.4826 19.238 10.9313 19.1665 11.4698C19.098 12.0083 19.0414 12.475 19.0384 12.5019C19.0384 12.5438 19.0116 12.5558 18.9192 12.5558H18.8L18.8059 16.3311L18.8149 20.1095L18.8983 20.1185L18.9788 20.1275V20.4117V20.671ZM12.7745 5.24731C13.0572 5.43246 13.3736 5.63793 13.6048 5.7881L13.6063 5.78909C13.7181 5.8617 13.8099 5.9213 13.8682 5.95931C14.0093 6.05225 14.4454 6.33649 14.9318 6.65364L15.3581 6.93157C15.6707 7.13442 15.9945 7.3458 16.2682 7.52441L16.2682 7.52442C16.5555 7.71195 16.7875 7.86334 16.8928 7.93076C17.0188 8.01324 17.2779 8.1822 17.5694 8.37227L18.1355 8.74148C18.6152 9.0556 19.238 9.46245 19.5211 9.64494L20.0367 9.98299H12.0087C7.59237 9.98299 3.98663 9.97701 3.99259 9.97401C3.99772 9.96886 4.18155 9.85519 4.42069 9.70732L4.42074 9.70728L4.5409 9.63297C4.83592 9.45049 5.74182 8.89405 6.55237 8.39745C7.36292 7.89785 8.32246 7.28458 8.68304 7.03628L9.00627 6.81372L9.00719 6.81309C9.33355 6.58839 9.71256 6.32745 9.96442 6.15376C10.1602 6.01989 10.3885 5.86203 10.5871 5.72475L10.5873 5.72461L10.5877 5.72432C10.7394 5.61942 10.8737 5.52657 10.9627 5.46569C11.8746 4.83148 11.9908 4.75071 11.9997 4.74771C12.0057 4.74771 12.3543 4.97208 12.7745 5.24731ZM11.0223 7.36236C11.0849 6.97943 11.368 6.65634 11.7375 6.55164C11.9133 6.50078 12.2232 6.52172 12.399 6.5995C12.6017 6.68626 12.8043 6.8867 12.9027 7.09611C12.9742 7.24569 12.9891 7.31449 12.9891 7.50595C12.9891 7.81708 12.9116 8.02649 12.7209 8.21496C12.4974 8.43933 12.3454 8.50215 12.0057 8.50215C11.7524 8.50215 11.7047 8.49318 11.5647 8.41839C11.1624 8.20598 10.9538 7.79614 11.0223 7.36236Z" fill="#917054"/>
</svg>
