<svg width="318" height="30" viewBox="0 0 318 30" fill="none" xmlns="http://www.w3.org/2000/svg">
<path d="M27.8649 12.1277V12.1777H27.9149H30.8085C31.1113 12.1777 31.4016 12.2979 31.6157 12.512C31.8297 12.7261 31.95 13.0164 31.95 13.3191V22.8511C31.95 23.1538 31.8297 23.4441 31.6157 23.6582C31.4016 23.8723 31.1113 23.9926 30.8085 23.9926H17.1915C16.8887 23.9926 16.5984 23.8723 16.3843 23.6582C16.1703 23.4441 16.05 23.1538 16.05 22.8511V13.3191C16.05 13.0164 16.1703 12.7261 16.3843 12.512C16.5984 12.2979 16.8887 12.1777 17.1915 12.1777H20.0851H20.1351V12.1277V9.91489C20.1351 8.88986 20.5423 7.90681 21.2671 7.182C21.9919 6.45719 22.975 6.05 24 6.05C25.025 6.05 26.0081 6.45719 26.7329 7.182C27.4577 7.90681 27.8649 8.88986 27.8649 9.91489V12.1277ZM26.8936 12.1777H26.9436V12.1277V9.91489C26.9436 9.1342 26.6335 8.38548 26.0815 7.83344C25.5294 7.28141 24.7807 6.97128 24 6.97128C23.2193 6.97128 22.4706 7.28141 21.9185 7.83344C21.3665 8.38548 21.0564 9.1342 21.0564 9.91489V12.1277V12.1777H21.1064H26.8936ZM30.9642 23.0068C31.0055 22.9655 31.0287 22.9095 31.0287 22.8511V13.3191C31.0287 13.2607 31.0055 13.2047 30.9642 13.1634C30.9229 13.1221 30.8669 13.0989 30.8085 13.0989H17.1915C17.1331 13.0989 17.0771 13.1221 17.0358 13.1634C16.9945 13.2047 16.9713 13.2607 16.9713 13.3191V22.8511C16.9713 22.9095 16.9945 22.9655 17.0358 23.0068C17.0771 23.0481 17.1331 23.0713 17.1915 23.0713H30.8085C30.8669 23.0713 30.9229 23.0481 30.9642 23.0068ZM24.8011 18.0851C24.8011 18.2435 24.7541 18.3984 24.6661 18.5302C24.578 18.6619 24.4529 18.7646 24.3066 18.8252C24.1602 18.8858 23.9991 18.9017 23.8437 18.8708C23.6883 18.8399 23.5456 18.7636 23.4336 18.6515C23.3215 18.5395 23.2452 18.3968 23.2143 18.2414C23.1834 18.086 23.1993 17.9249 23.2599 17.7786C23.3205 17.6322 23.4232 17.5071 23.555 17.419C23.6867 17.331 23.8416 17.284 24 17.284C24.2125 17.284 24.4162 17.3684 24.5664 17.5187C24.7167 17.6689 24.8011 17.8727 24.8011 18.0851Z" fill="#1F1F1F" stroke="#EFECE5" stroke-width="0.1"/>
<path d="M302.975 15.4504C302.95 15.3947 302.351 14.0662 301.009 12.7245C299.766 11.4817 297.629 10 294.5 10C291.371 10 289.234 11.4817 287.991 12.7245C286.649 14.0662 286.05 15.3947 286.025 15.4504C286.008 15.488 286 15.5285 286 15.5694C286 15.6104 286.008 15.6509 286.025 15.6885C286.05 15.7449 286.649 17.0727 287.991 18.4144C289.236 19.6602 291.372 21.1382 294.5 21.1382C297.628 21.1382 299.766 19.6572 301.009 18.4144C302.351 17.0727 302.95 15.7449 302.975 15.6885C302.992 15.6509 303 15.6104 303 15.5694C303 15.5285 302.992 15.488 302.975 15.4504ZM300.579 18.0151C298.889 19.7005 296.842 20.5519 294.497 20.5519C292.152 20.5519 290.108 19.6983 288.415 18.0151C287.695 17.2965 287.089 16.4715 286.618 15.5691C287.089 14.6664 287.696 13.8415 288.418 13.1231C290.111 11.4399 292.155 10.5862 294.5 10.5862C296.845 10.5862 298.889 11.4399 300.582 13.1231C301.304 13.8415 301.911 14.6665 302.382 15.5691C301.911 16.4717 301.304 17.2967 300.582 18.0151H300.579ZM294.5 12.3449C293.862 12.3449 293.239 12.534 292.709 12.8883C292.179 13.2425 291.765 13.7461 291.521 14.3352C291.277 14.9244 291.213 15.5727 291.338 16.1981C291.462 16.8235 291.769 17.398 292.22 17.8489C292.671 18.2999 293.246 18.6069 293.871 18.7313C294.496 18.8557 295.145 18.7919 295.734 18.5479C296.323 18.3038 296.827 17.8906 297.181 17.3604C297.535 16.8301 297.724 16.2068 297.724 15.5691C297.723 14.7143 297.383 13.8947 296.779 13.2903C296.174 12.6858 295.355 12.3458 294.5 12.3449ZM294.5 18.2071C293.978 18.2071 293.468 18.0524 293.034 17.7625C292.601 17.4726 292.262 17.0606 292.063 16.5786C291.863 16.0966 291.811 15.5662 291.913 15.0544C292.014 14.5427 292.266 14.0727 292.635 13.7037C293.004 13.3348 293.474 13.0836 293.985 12.9818C294.497 12.88 295.027 12.9322 295.51 13.1319C295.992 13.3316 296.404 13.6697 296.693 14.1035C296.983 14.5373 297.138 15.0473 297.138 15.5691C297.138 16.2687 296.86 16.9397 296.365 17.4344C295.871 17.9291 295.2 18.2071 294.5 18.2071Z" fill="black"/>
</svg>
