<svg width="38" height="30" viewBox="0 0 38 30" fill="none" xmlns="http://www.w3.org/2000/svg">
<path d="M26.8649 12.1277V12.1777H26.9149H29.8085C30.1113 12.1777 30.4016 12.2979 30.6157 12.512C30.8297 12.7261 30.95 13.0164 30.95 13.3191V22.8511C30.95 23.1538 30.8297 23.4441 30.6157 23.6582C30.4016 23.8723 30.1113 23.9926 29.8085 23.9926H16.1915C15.8887 23.9926 15.5984 23.8723 15.3843 23.6582C15.1703 23.4441 15.05 23.1538 15.05 22.8511V13.3191C15.05 13.0164 15.1703 12.7261 15.3843 12.512C15.5984 12.2979 15.8887 12.1777 16.1915 12.1777H19.0851H19.1351V12.1277V9.91489C19.1351 8.88986 19.5423 7.90681 20.2671 7.182C20.9919 6.45719 21.975 6.05 23 6.05C24.025 6.05 25.0081 6.45719 25.7329 7.182C26.4577 7.90681 26.8649 8.88986 26.8649 9.91489V12.1277ZM25.8936 12.1777H25.9436V12.1277V9.91489C25.9436 9.1342 25.6335 8.38548 25.0815 7.83344C24.5294 7.28141 23.7807 6.97128 23 6.97128C22.2193 6.97128 21.4706 7.28141 20.9185 7.83344C20.3665 8.38548 20.0564 9.1342 20.0564 9.91489V12.1277V12.1777H20.1064H25.8936ZM29.9642 23.0068C30.0055 22.9655 30.0287 22.9095 30.0287 22.8511V13.3191C30.0287 13.2607 30.0055 13.2047 29.9642 13.1634C29.9229 13.1221 29.8669 13.0989 29.8085 13.0989H16.1915C16.1331 13.0989 16.0771 13.1221 16.0358 13.1634C15.9945 13.2047 15.9713 13.2607 15.9713 13.3191V22.8511C15.9713 22.9095 15.9945 22.9655 16.0358 23.0068C16.0771 23.0481 16.1331 23.0713 16.1915 23.0713H29.8085C29.8669 23.0713 29.9229 23.0481 29.9642 23.0068ZM23.8011 18.0851C23.8011 18.2435 23.7541 18.3984 23.6661 18.5302C23.578 18.6619 23.4529 18.7646 23.3066 18.8252C23.1602 18.8858 22.9991 18.9017 22.8437 18.8708C22.6883 18.8399 22.5456 18.7636 22.4336 18.6515C22.3215 18.5395 22.2452 18.3968 22.2143 18.2414C22.1834 18.086 22.1993 17.9249 22.2599 17.7786C22.3205 17.6322 22.4232 17.5071 22.555 17.419C22.6867 17.331 22.8416 17.284 23 17.284C23.2125 17.284 23.4162 17.3684 23.5664 17.5187C23.7167 17.6689 23.8011 17.8727 23.8011 18.0851Z" fill="#1F1F1F" stroke="#EFECE5" stroke-width="0.1"/>
</svg>
