<svg width="38" height="30" viewBox="0 0 38 30" fill="none" xmlns="http://www.w3.org/2000/svg">
<path d="M16.615 23C16.155 23 15.771 22.846 15.463 22.538C15.1543 22.2293 15 21.845 15 21.385V10.615C15 10.155 15.1543 9.771 15.463 9.463C15.771 9.15433 16.155 9 16.615 9H31.385C31.845 9 32.229 9.15433 32.537 9.463C32.8457 9.771 33 10.155 33 10.615V21.385C33 21.845 32.846 22.229 32.538 22.537C32.2293 22.8457 31.845 23 31.385 23H16.615ZM24 16.115L16 10.885V21.385C16 21.5643 16.0577 21.7117 16.173 21.827C16.2883 21.9423 16.4357 22 16.615 22H31.385C31.5643 22 31.7117 21.9423 31.827 21.827C31.9423 21.7117 32 21.5643 32 21.385V10.885L24 16.115ZM24 15L31.692 10H16.308L24 15ZM16 10.885V10V21.385C16 21.5643 16.0577 21.7117 16.173 21.827C16.2883 21.9423 16.4357 22 16.615 22H16V10.885Z" fill="black"/>
</svg>
