<svg width="38" height="30" viewBox="0 0 38 30" fill="none" xmlns="http://www.w3.org/2000/svg">
<path d="M30.5833 21.7277H30.7339L30.7333 21.5771C30.7318 21.1903 30.5001 20.1036 29.5107 19.1143C28.5537 18.1572 26.7745 17.1833 23.5 17.1833C20.2241 17.1833 18.4463 18.1572 17.4893 19.1143C16.4997 20.1038 16.2698 21.1904 16.2667 21.5764L16.2654 21.7277H16.4167H30.5833ZM26.3991 13.1491C25.6302 13.918 24.5874 14.35 23.5 14.35C22.4126 14.35 21.3698 13.918 20.6009 13.1491C19.832 12.3802 19.4 11.3374 19.4 10.25C19.4 9.16261 19.832 8.11976 20.6009 7.35086C21.3698 6.58196 22.4126 6.15 23.5 6.15C24.5874 6.15 25.6302 6.58196 26.3991 7.35086C27.168 8.11976 27.6 9.16261 27.6 10.25C27.6 11.3374 27.168 12.3802 26.3991 13.1491ZM25.6095 12.3595C26.169 11.8001 26.4833 11.0412 26.4833 10.25C26.4833 9.45877 26.169 8.69995 25.6095 8.14046C25.0501 7.58098 24.2912 7.26667 23.5 7.26667C22.7088 7.26667 21.9499 7.58098 21.3905 8.14046C20.831 8.69995 20.5167 9.45877 20.5167 10.25C20.5167 11.0412 20.831 11.8001 21.3905 12.3595C21.9499 12.919 22.7088 13.2333 23.5 13.2333C24.2912 13.2333 25.0501 12.919 25.6095 12.3595ZM31.85 21.5833C31.85 21.9113 31.7685 22.1472 31.6538 22.3191C31.5386 22.492 31.3839 22.6091 31.2246 22.6888C31.0647 22.7687 30.903 22.8094 30.78 22.8299C30.7189 22.8401 30.6683 22.8451 30.6335 22.8476C30.6264 22.8481 30.6199 22.8485 30.6142 22.8488C30.606 22.8493 30.5993 22.8496 30.5942 22.8497L30.585 22.85L30.5833 22.85L30.5832 22.85L16.4168 22.85H16.4167L16.415 22.85L16.4058 22.8497C16.3971 22.8495 16.3838 22.8489 16.3665 22.8476C16.3317 22.8451 16.2811 22.8401 16.22 22.8299C16.097 22.8094 15.9353 22.7687 15.7754 22.6888C15.6161 22.6091 15.4614 22.492 15.3462 22.3191C15.2315 22.1472 15.15 21.9113 15.15 21.5833C15.15 20.9135 15.4892 19.5354 16.6998 18.3248C17.906 17.1186 19.99 16.0667 23.5 16.0667C27.01 16.0667 29.094 17.1186 30.3002 18.3248C31.5108 19.5354 31.85 20.9135 31.85 21.5833Z" fill="#1F1F1F" stroke="#EFECE5" stroke-width="0.3"/>
</svg>
